# xmcd
#
# Track frame offsets: 
#        150
#        17615
#        35020
#        69352
#
# Disc length: 1155 seconds
#
# Revision: 3
# Processed by: cddbd v1.5.2PL0 Copyright (c) Steve Scherf et al.
# Submitted via: ExactAudioCopy v0.99pb5
#
DISCID=2a048104
DTITLE=Jungle Brothers - 40 Below Trooper (Promo CD Single)
DYEAR=1993
DGENRE=Hip-Hop
TTITLE0=40 Below Trooper (7" Version)
TTITLE1=40 Below Trooper (Heartbeat Mix)
TTITLE2=40 Below Trooper (12" Instrumental)
TTITLE3=40 Below Trooper (Instrumental)
EXTD=
EXTT0=
EXTT1=
EXTT2=
EXTT3=
PLAYORDER=
